# xmcd
#
# Track frame offsets: 
#        150
#        24787
#        40098
#        53362
#        70504
#        86856
#        101786
#        118451
#        132611
#        147648
#        164478
#
# Disc length: 2409 seconds
#
# Revision: 0
# Processed by: cddbd v1.5.2PL0 Copyright (c) Steve Scherf et al.
# Submitted via: ExactAudioCopyFreeDBPlugin 1.0
#
DISCID=9c09670b
DTITLE=Ciara - Beauty Marks
DYEAR=2019
DGENRE=R&B
TTITLE0=I Love Myself (feat. Macklemore)
TTITLE1=Level Up
TTITLE2=Set
TTITLE3=Thinkin Bout You
TTITLE4=Trust Myself
TTITLE5=Girl Gang (feat. Kelly Rowland)
TTITLE6=Dose
TTITLE7=Na Na
TTITLE8=Freak Me (feat. Tekno)
TTITLE9=Greatest Love
TTITLE10=Beauty Marks
EXTD=
EXTT0=
EXTT1=
EXTT2=
EXTT3=
EXTT4=
EXTT5=
EXTT6=
EXTT7=
EXTT8=
EXTT9=
EXTT10=
PLAYORDER=
